<svg xmlns="http://www.w3.org/2000/svg" xmlns:xlink="http://www.w3.org/1999/xlink" version="1.1" x="0px" y="0px" viewBox="0 0 489.376 370.67875000000004" enable-background="new 0 0 489.376 296.543" xml:space="preserve"><g><polygon points="140.935,158.526 35.132,158.526 55.608,195.526 161.412,195.526  "/><polygon points="62.803,208.526 83.28,245.526 189.088,245.526 168.612,208.526  "/><polygon points="343.805,108.526 343.612,108.526 316.09,108.526 243.419,239.831 170.748,108.526 143.226,108.526    143.032,108.526 7.461,108.526 27.938,145.526 163.509,145.526 243.268,289.646 243.419,289.374 243.57,289.646 323.329,145.526    458.9,145.526 479.376,108.526  "/><polygon points="325.426,195.526 431.229,195.526 451.706,158.526 345.903,158.526  "/><polygon points="297.75,245.526 403.558,245.526 424.035,208.526 318.226,208.526  "/><path d="M151.791,54.142c0,25.355,20.627,45.983,45.982,45.983c11.442,0,21.913-4.211,29.969-11.151l15.616,16.361l15.995-16.758   c8.114,7.178,18.767,11.548,30.426,11.548c25.355,0,45.984-20.628,45.984-45.983c0-12.118-4.679-23.469-12.993-32.002   l16.146-16.916c-0.009,0-0.02,0-0.038,0.011c-0.952,0.436-95.518,19.606-95.518,19.606S148.797,5.67,147.844,5.234   c-0.019-0.011-0.028-0.011-0.038-0.011l16.559,17.349C156.313,31.056,151.791,42.228,151.791,54.142z M309.882,35.642   c4.572,4.955,7.213,11.502,7.213,18.499c0,15.064-12.254,27.32-27.316,27.32c-6.669,0-12.784-2.405-17.532-6.391L309.882,35.642z    M177.273,36.097l37.563,39.355c-4.679,3.755-10.611,6.009-17.063,6.009c-15.062,0-27.315-12.256-27.315-27.32   C170.458,47.353,172.951,40.995,177.273,36.097z"/></g><text x="0" y="311.543" fill="#000000" font-size="5px" font-weight="bold" font-family="'Helvetica Neue', Helvetica, Arial-Unicode, Arial, Sans-serif">Created by Felix Brönnimann</text><text x="0" y="316.543" fill="#000000" font-size="5px" font-weight="bold" font-family="'Helvetica Neue', Helvetica, Arial-Unicode, Arial, Sans-serif">from the Noun Project</text></svg>
