<svg xmlns="http://www.w3.org/2000/svg" xmlns:xlink="http://www.w3.org/1999/xlink" version="1.1" x="0px" y="0px" viewBox="0 0 60 60" enable-background="new 0 0 60 60" xml:space="preserve"><rect x="-90" y="-411" display="none" fill="#000000" width="802" height="805"/><g><path d="M43.2275391,29.5H30.5V16.7724609c0-0.2763672-0.2236328-0.5-0.5-0.5s-0.5,0.2236328-0.5,0.5V29.5H16.7724609   c-0.2763672,0-0.5,0.2236328-0.5,0.5s0.2236328,0.5,0.5,0.5H29.5v12.7275391c0,0.2763672,0.2236328,0.5,0.5,0.5   s0.5-0.2236328,0.5-0.5V30.5h12.7275391c0.2763672,0,0.5-0.2236328,0.5-0.5S43.5039062,29.5,43.2275391,29.5z"/><path d="M30,0.5C13.7333984,0.5,0.5,13.7333984,0.5,30S13.7333984,59.5,30,59.5S59.5,46.2666016,59.5,30S46.2666016,0.5,30,0.5z    M30,58.5C14.2851562,58.5,1.5,45.7148438,1.5,30S14.2851562,1.5,30,1.5S58.5,14.2851562,58.5,30S45.7148438,58.5,30,58.5z"/></g></svg>
