<svg xmlns="http://www.w3.org/2000/svg" xmlns:xlink="http://www.w3.org/1999/xlink" version="1.1" x="0px" y="0px" viewBox="0 0 100 125" enable-background="new 0 0 100 100" xml:space="preserve"><path fill="#000000" d="M71.801,52.466c2.465-5.063,3.039-11.402,3.039-17.955C74.84,17.23,64.857,5.62,50,5.62  c-14.858,0-24.841,11.61-24.841,28.892c0,6.553,0.575,12.892,3.04,17.955C19.979,54.293,14,61.581,14,70.199V92.88  c0,0.828,0.672,1.5,1.5,1.5h69c0.828,0,1.5-0.672,1.5-1.5V70.199C86,61.58,80.021,54.292,71.801,52.466z M50,8.62  c13.268,0,21.84,10.163,21.84,25.892c0,15.984-3.653,25.891-21.84,25.891c-18.188,0-21.841-9.906-21.841-25.891  C28.159,18.783,36.732,8.62,50,8.62z M83,91.38H71.404V74.983c0-0.828-0.672-1.5-1.5-1.5s-1.5,0.672-1.5,1.5V91.38H30.161V74.983  c0-0.828-0.672-1.5-1.5-1.5s-1.5,0.672-1.5,1.5V91.38H17V70.199c0-7.535,5.472-13.845,12.834-14.984  c3.555,4.984,9.69,8.187,20.166,8.187c10.477,0,16.611-3.203,20.166-8.188C77.528,56.353,83,62.665,83,70.199V91.38z"/><text x="0" y="115" fill="#000000" font-size="5px" font-weight="bold" font-family="'Helvetica Neue', Helvetica, Arial-Unicode, Arial, Sans-serif">Created by Philip Glenn</text><text x="0" y="120" fill="#000000" font-size="5px" font-weight="bold" font-family="'Helvetica Neue', Helvetica, Arial-Unicode, Arial, Sans-serif">from the Noun Project</text></svg>
